<svg xmlns="http://www.w3.org/2000/svg" viewBox="0 0 64 64" role="img" aria-labelledby="title desc">
  <title id="title">Python</title>
  <desc id="desc">Ícone estilizado representando Python.</desc>
  <rect width="64" height="64" rx="18" fill="#101a2a"/>
  <path d="M32 15c8 0 10 3 10 9v5H26c-3 0-5 2-5 5v3c0 5 3 8 9 8h4c0-3 2-5 5-5h8c3 0 5-2 5-5V24c0-6-4-9-12-9h-8z" fill="#3776ab"/>
  <path d="M32 49c-8 0-10-3-10-9v-5h16c3 0 5-2 5-5v-3c0-5-3-8-9-8h-4c0 3-2 5-5 5h-8c-3 0-5 2-5 5v11c0 6 4 9 12 9h8z" fill="#ffd43b"/>
  <circle cx="27" cy="22" r="2" fill="#fff"/>
  <circle cx="37" cy="42" r="2" fill="#fff"/>
</svg>
